solid csg.js
facet normal -1 0 0
outer loop
vertex 0 0 0
vertex 0 0 1
vertex 0 1 1
endloop
endfacet
facet normal -1 0 0
outer loop
vertex 0 0 0
vertex 0 1 1
vertex 0 1 0
endloop
endfacet
facet normal 0 -1 0
outer loop
vertex 5 0 0
vertex 5 0 1
vertex 0 0 1
endloop
endfacet
facet normal 0 -1 0
outer loop
vertex 5 0 0
vertex 0 0 1
vertex 0 0 0
endloop
endfacet
facet normal 0 -1 0
outer loop
vertex 5 0 1
vertex 5 0 2
vertex 1 0 2
endloop
endfacet
facet normal 0 -1 0
outer loop
vertex 5 0 1
vertex 1 0 2
vertex 1 0 1
endloop
endfacet
facet normal 0 -1 0
outer loop
vertex 5 0 2
vertex 5 0 3
vertex 2 0 3
endloop
endfacet
facet normal 0 -1 0
outer loop
vertex 5 0 2
vertex 2 0 3
vertex 2 0 2
endloop
endfacet
facet normal 0 -1 0
outer loop
vertex 5 0 3
vertex 5 0 4
vertex 3 0 4
endloop
endfacet
facet normal 0 -1 0
outer loop
vertex 5 0 3
vertex 3 0 4
vertex 3 0 3
endloop
endfacet
facet normal 0 -1 0
outer loop
vertex 5 0 4
vertex 5 0 5
vertex 4 0 5
endloop
endfacet
facet normal 0 -1 0
outer loop
vertex 5 0 4
vertex 4 0 5
vertex 4 0 4
endloop
endfacet
facet normal 0 1 0
outer loop
vertex 5 1 5
vertex 5 1 4
vertex 4 1 4
endloop
endfacet
facet normal 0 1 0
outer loop
vertex 5 1 5
vertex 4 1 4
vertex 4 1 5
endloop
endfacet
facet normal 0 1 0
outer loop
vertex 5 1 4
vertex 5 1 3
vertex 3 1 3
endloop
endfacet
facet normal 0 1 0
outer loop
vertex 5 1 4
vertex 3 1 3
vertex 3 1 4
endloop
endfacet
facet normal 0 1 0
outer loop
vertex 5 1 3
vertex 5 1 2
vertex 2 1 2
endloop
endfacet
facet normal 0 1 0
outer loop
vertex 5 1 3
vertex 2 1 2
vertex 2 1 3
endloop
endfacet
facet normal 0 1 0
outer loop
vertex 5 1 2
vertex 5 1 1
vertex 1 1 1
endloop
endfacet
facet normal 0 1 0
outer loop
vertex 5 1 2
vertex 1 1 1
vertex 1 1 2
endloop
endfacet
facet normal 0 1 0
outer loop
vertex 5 1 1
vertex 5 1 0
vertex 0 1 0
endloop
endfacet
facet normal 0 1 0
outer loop
vertex 5 1 1
vertex 0 1 0
vertex 0 1 1
endloop
endfacet
facet normal 0 0 -1
outer loop
vertex 5 1 0
vertex 5 0 0
vertex 0 0 0
endloop
endfacet
facet normal 0 0 -1
outer loop
vertex 5 1 0
vertex 0 0 0
vertex 0 1 0
endloop
endfacet
facet normal 0 0 1
outer loop
vertex 0 0 1
vertex 1 0 1
vertex 1 1 1
endloop
endfacet
facet normal 0 0 1
outer loop
vertex 0 0 1
vertex 1 1 1
vertex 0 1 1
endloop
endfacet
facet normal -1 0 0
outer loop
vertex 1 0 1
vertex 1 0 2
vertex 1 1 2
endloop
endfacet
facet normal -1 0 0
outer loop
vertex 1 0 1
vertex 1 1 2
vertex 1 1 1
endloop
endfacet
facet normal 0 0 1
outer loop
vertex 1 0 2
vertex 2 0 2
vertex 2 1 2
endloop
endfacet
facet normal 0 0 1
outer loop
vertex 1 0 2
vertex 2 1 2
vertex 1 1 2
endloop
endfacet
facet normal -1 0 0
outer loop
vertex 2 0 2
vertex 2 0 3
vertex 2 1 3
endloop
endfacet
facet normal -1 0 0
outer loop
vertex 2 0 2
vertex 2 1 3
vertex 2 1 2
endloop
endfacet
facet normal 0 0 1
outer loop
vertex 2 0 3
vertex 3 0 3
vertex 3 1 3
endloop
endfacet
facet normal 0 0 1
outer loop
vertex 2 0 3
vertex 3 1 3
vertex 2 1 3
endloop
endfacet
facet normal -1 0 0
outer loop
vertex 3 0 3
vertex 3 0 4
vertex 3 1 4
endloop
endfacet
facet normal -1 0 0
outer loop
vertex 3 0 3
vertex 3 1 4
vertex 3 1 3
endloop
endfacet
facet normal 0 0 1
outer loop
vertex 3 0 4
vertex 4 0 4
vertex 4 1 4
endloop
endfacet
facet normal 0 0 1
outer loop
vertex 3 0 4
vertex 4 1 4
vertex 3 1 4
endloop
endfacet
facet normal -1 0 0
outer loop
vertex 4 0 4
vertex 4 0 5
vertex 4 1 5
endloop
endfacet
facet normal -1 0 0
outer loop
vertex 4 0 4
vertex 4 1 5
vertex 4 1 4
endloop
endfacet
facet normal 1 0 0
outer loop
vertex 5 0 0
vertex 5 1 0
vertex 5 1 5
endloop
endfacet
facet normal 1 0 0
outer loop
vertex 5 0 0
vertex 5 1 5
vertex 5 0 5
endloop
endfacet
facet normal 0 0 1
outer loop
vertex 4 0 5
vertex 5 0 5
vertex 5 1 5
endloop
endfacet
facet normal 0 0 1
outer loop
vertex 4 0 5
vertex 5 1 5
vertex 4 1 5
endloop
endfacet
endsolid csg.js
